<svg width="52" height="52" viewBox="0 0 52 52" fill="none" xmlns="http://www.w3.org/2000/svg">
<g filter="url(#filter0_d_307_1508)">
<rect x="4" width="44" height="44" rx="8" fill="#F6F6F6" shape-rendering="crispEdges"/>
<path d="M18.5 15.3333H19.0053C19.8558 15.3333 20.5699 15.9738 20.6621 16.8193L21.3379 23.0141C21.4301 23.8596 22.1442 24.5 22.9947 24.5H30.205C30.9669 24.5 31.6317 23.9834 31.82 23.2452L32.9699 18.7359C33.2387 17.6821 32.4425 16.6574 31.355 16.6574H21.5M21.5206 27.5208H22.1456M21.5206 28.1458H22.1456M30.6873 27.5208H31.3123M30.6873 28.1458H31.3123M22.6667 27.8333C22.6667 28.2936 22.2936 28.6667 21.8333 28.6667C21.3731 28.6667 21 28.2936 21 27.8333C21 27.3731 21.3731 27 21.8333 27C22.2936 27 22.6667 27.3731 22.6667 27.8333ZM31.8333 27.8333C31.8333 28.2936 31.4602 28.6667 31 28.6667C30.5398 28.6667 30.1667 28.2936 30.1667 27.8333C30.1667 27.3731 30.5398 27 31 27C31.4602 27 31.8333 27.3731 31.8333 27.8333Z" stroke="#807D7E" stroke-width="1.5" stroke-linecap="round"/>
</g>
<defs>
<filter id="filter0_d_307_1508" x="0" y="0" width="52" height="52" filterUnits="userSpaceOnUse" color-interpolation-filters="sRGB">
<feFlood flood-opacity="0" result="BackgroundImageFix"/>
<feColorMatrix in="SourceAlpha" type="matrix" values="0 0 0 0 0 0 0 0 0 0 0 0 0 0 0 0 0 0 127 0" result="hardAlpha"/>
<feOffset dy="4"/>
<feGaussianBlur stdDeviation="2"/>
<feComposite in2="hardAlpha" operator="out"/>
<feColorMatrix type="matrix" values="0 0 0 0 0 0 0 0 0 0 0 0 0 0 0 0 0 0 0.25 0"/>
<feBlend mode="normal" in2="BackgroundImageFix" result="effect1_dropShadow_307_1508"/>
<feBlend mode="normal" in="SourceGraphic" in2="effect1_dropShadow_307_1508" result="shape"/>
</filter>
</defs>
</svg>
